<svg xmlns="http://www.w3.org/2000/svg" viewBox="0 0 960 540" width="960" height="540" shape-rendering="crispEdges" role="img" aria-label="Animated pixel scene: a girl codes on a laptop in a night-time cafe while a cat sips coffee" xmlns:c2pa="http://c2pa.org/manifest"><metadata><c2pa:manifest>AAAWgmp1bWIAAAAeanVtZGMycGEAEQAQgAAAqgA4m3EDYzJwYQAAABZcanVtYgAAAEdqdW1kYzJtYQARABCAAACqADibcQN1cm46YzJwYTo0MWFlYWY5OC0yNGQxLTRiODctYTNmYi00NjJjMDJiMDgwZjMAAAADl2p1bWIAAAApanVtZGMyYXMAEQAQgAAAqgA4m3EDYzJwYS5hc3NlcnRpb25zAAAAALxqdW1iAAAARGp1bWRjYm9yABEAEIAAAKoAOJtxE2MycGEuaW5ncmVkaWVudC52MwAAAAAYYzJzaO4ZZFOhARtNLUpBnTiLkBEAAABwY2JvcqNpZGM6Zm9ybWF0bWltYWdlL3N2Zyt4bWxqaW5zdGFuY2VJRHgseG1wOmlpZDowYTc5YzJjOC0xNmJjLTRjMjItYmU0ZC03NTNjM2Q2NmRlNDFscmVsYXRpb25zaGlwaHBhcmVudE9mAAAB4mp1bWIAAABBanVtZGNib3IAEQAQgAAAqgA4m3ETYzJwYS5hY3Rpb25zLnYyAAAAABhjMnNoQwxFibjxZdN7qoJNOyNQUwAAAZljYm9yomdhY3Rpb25zgqJmYWN0aW9ua2MycGEub3BlbmVkanBhcmFtZXRlcnOha2luZ3JlZGllbnRzgaJjdXJseC1zZWxmI2p1bWJmPWMycGEuYXNzZXJ0aW9ucy9jMnBhLmluZ3JlZGllbnQudjNkaGFzaFgge4/PdcAzRvE2X7lqWPwgNR0ysNAzrNpXVymnFPubSDqkZmFjdGlvbngdY29tLmFudGhyb3BpYy5jbGF1ZGUucHJvdmlkZWRqcGFyYW1ldGVyc6F4H2NvbS5hbnRocm9waWMub3JpZ2luLWNvbmZpZGVuY2VndW5rbm93bmtkZXNjcmlwdGlvbnhmQ2xhdWRlIHByb3ZpZGVkIHRoaXMgZmlsZSBhdCB0aGUgcmVxdWVzdCBvZiBhIHVzZXIgYW5kIG1heSBoYXZlIGNyZWF0ZWQgb3IgbW9kaWZpZWQgdGhlIGZpbGUgY29udGVudHMubXNvZnR3YXJlQWdlbnShZG5hbWVmQ2xhdWRlcmFsbEFjdGlvbnNJbmNsdWRlZPUAAADIanVtYgAAAEBqdW1kY2JvcgARABCAAACqADibcRNjMnBhLmhhc2guZGF0YQAAAAAYYzJzaD0BFzJeVCOtYeFJyGGNVwIAAACAY2JvcqVjYWxnZnNoYTI1NmNwYWRMAAAAAAAAAAAAAAAAZGhhc2hYIK53XEyRp3UGNNl5cJ+/bLw1twz4OEGCVOQ/oNTCncTOZG5hbWVuanVtYmYgbWFuaWZlc3RqZXhjbHVzaW9uc4GiZXN0YXJ0GQEnZmxlbmd0aBkeBAAAAj5qdW1iAAAAJ2p1bWRjMmNsABEAEIAAAKoAOJtxA2MycGEuY2xhaW0udjIAAAACD2Nib3KlY2FsZ2ZzaGEyNTZpc2lnbmF0dXJleE1zZWxmI2p1bWJmPS9jMnBhL3VybjpjMnBhOjQxYWVhZjk4LTI0ZDEtNGI4Ny1hM2ZiLTQ2MmMwMmIwODBmMy9jMnBhLnNpZ25hdHVyZWppbnN0YW5jZUlEeCx4bXA6aWlkOmYyOWE1MmZiLTgzMTktNDFmNC1iOTNjLTZmNTA1MWY0MmNkM3JjcmVhdGVkX2Fzc2VydGlvbnODomN1cmx4LXNlbGYjanVtYmY9YzJwYS5hc3NlcnRpb25zL2MycGEuaW5ncmVkaWVudC52M2RoYXNoWCB7j891wDNG8TZfuWpY/CA1HTKw0DOs2ldXKacU+5tIOqJjdXJseCpzZWxmI2p1bWJmPWMycGEuYXNzZXJ0aW9ucy9jMnBhLmFjdGlvbnMudjJkaGFzaFggMOxfPrMgh+XgGdd6w7eiwMVbaxmr8cehmXu9IjdOiWiiY3VybHgpc2VsZiNqdW1iZj1jMnBhLmFzc2VydGlvbnMvYzJwYS5oYXNoLmRhdGFkaGFzaFgghiEL+CMzE/1EB2W5vfcUTD5xeRj7lLqxyXrOPFdvWl90Y2xhaW1fZ2VuZXJhdG9yX2luZm+jZG5hbWVvQW50aHJvcGljIEZpbGVzZ3ZlcnNpb25lMS4wLjBrc3BlY1ZlcnNpb25lMi40LjAAABA4anVtYgAAAChqdW1kYzJjcwARABCAAACqADibcQNjMnBhLnNpZ25hdHVyZQAAABAIY2JvctKEWQISogEmGCFZAgowggIGMIIBjaADAgECAhRA5aAK7sI50L64g/oGQgU9Z1UTADAKBggqhkjOPQQDAzBJMRcwFQYDVQQKEw5BbnRocm9waWMsIFBCQzEuMCwGA1UEAxMlQW50aHJvcGljIENvbnRlbnQgQ3JlZGVudGlhbHMgUm9vdCBDQTAeFw0yNjA4MDcxODQzNTZaFw0yODA4MDYxOTQzNTZaMEQxFzAVBgNVBAoTDkFudGhyb3BpYywgUEJDMSkwJwYDVQQDEyBBbnRocm9waWMgQ2xhdWRlIENvbnRlbnQgU2lnbmluZzBZMBMGByqGSM49AgEGCCqGSM49AwEHA0IABJh6CmvLUBgFFNU0vUKlOVtE6djd17L5SuwX0LemFisBM3dkd/3cyjxFA3Qo5S46fX0/ihY0VZ7mfb9KF703t5OjWDBWMA4GA1UdDwEB/wQEAwIHgDAVBgNVHSUEDjAMBgorBgEEAYPoXgIBMAwGA1UdEwEB/wQCMAAwHwYDVR0jBBgwFoAUzlHiBIFOZFsj+OPEz5o+nMHXXMIwCgYIKoZIzj0EAwMDZwAwZAIwMXMdFJ4BetLLVY7ORuE9noqbbAZOZn/aArXyTwFAZfKrPzxF2vPoJNf1+UCdg1XGAjBwX1zd9WGqYkqmL5SFqw1QySjr1zJfpJM9+1rdDwSPLMOPOjKuiXjoU/pUUeG9RwmhY3BhZFkNngAAAAAAAAAAAAAAAAAAAAAAAAAAAAAAAAAAAAAAAAAAAAAAAAAAAAAAAAAAAAAAAAAAAAAAAAAAAAAAAAAAAAAAAAAAAAAAAAAAAAAAAAAAAAAAAAAAAAAAAAAAAAAAAAAAAAAAAAAAAAAAAAAAAAAAAAAAAAAAAAAAAAAAAAAAAAAAAAAAAAAAAAAAAAAAAAAAAAAAAAAAAAAAAAAAAAAAAAAAAAAAAAAAAAAAAAAAAAAAAAAAAAAAAAAAAAAAAAAAAAAAAAAAAAAAAAAAAAAAAAAAAAAAAAAAAAAAAAAAAAAAAAAAAAAAAAAAAAAAAAAAAAAAAAAAAAAAAAAAAAAAAAAAAAAAAAAAAAAAAAAAAAAAAAAAAAAAAAAAAAAAAAAAAAAAAAAAAAAAAAAAAAAAAAAAAAAAAAAAAAAAAAAAAAAAAAAAAAAAAAAAAAAAAAAAAAAAAAAAAAAAAAAAAAAAAAAAAAAAAAAAAAAAAAAAAAAAAAAAAAAAAAAAAAAAAAAAAAAAAAAAAAAAAAAAAAAAAAAAAAAAAAAAAAAAAAAAAAAAAAAAAAAAAAAAAAAAAAAAAAAAAAAAAAAAAAAAAAAAAAAAAAAAAAAAAAAAAAAAAAAAAAAAAAAAAAAAAAAAAAAAAAAAAAAAAAAAAAAAAAAAAAAAAAAAAAAAAAAAAAAAAAAAAAAAAAAAAAAAAAAAAAAAAAAAAAAAAAAAAAAAAAAAAAAAAAAAAAAAAAAAAAAAAAAAAAAAAAAAAAAAAAAAAAAAAAAAAAAAAAAAAAAAAAAAAAAAAAAAAAAAAAAAAAAAAAAAAAAAAAAAAAAAAAAAAAAAAAAAAAAAAAAAAAAAAAAAAAAAAAAAAAAAAAAAAAAAAAAAAAAAAAAAAAAAAAAAAAAAAAAAAAAAAAAAAAAAAAAAAAAAAAAAAAAAAAAAAAAAAAAAAAAAAAAAAAAAAAAAAAAAAAAAAAAAAAAAAAAAAAAAAAAAAAAAAAAAAAAAAAAAAAAAAAAAAAAAAAAAAAAAAAAAAAAAAAAAAAAAAAAAAAAAAAAAAAAAAAAAAAAAAAAAAAAAAAAAAAAAAAAAAAAAAAAAAAAAAAAAAAAAAAAAAAAAAAAAAAAAAAAAAAAAAAAAAAAAAAAAAAAAAAAAAAAAAAAAAAAAAAAAAAAAAAAAAAAAAAAAAAAAAAAAAAAAAAAAAAAAAAAAAAAAAAAAAAAAAAAAAAAAAAAAAAAAAAAAAAAAAAAAAAAAAAAAAAAAAAAAAAAAAAAAAAAAAAAAAAAAAAAAAAAAAAAAAAAAAAAAAAAAAAAAAAAAAAAAAAAAAAAAAAAAAAAAAAAAAAAAAAAAAAAAAAAAAAAAAAAAAAAAAAAAAAAAAAAAAAAAAAAAAAAAAAAAAAAAAAAAAAAAAAAAAAAAAAAAAAAAAAAAAAAAAAAAAAAAAAAAAAAAAAAAAAAAAAAAAAAAAAAAAAAAAAAAAAAAAAAAAAAAAAAAAAAAAAAAAAAAAAAAAAAAAAAAAAAAAAAAAAAAAAAAAAAAAAAAAAAAAAAAAAAAAAAAAAAAAAAAAAAAAAAAAAAAAAAAAAAAAAAAAAAAAAAAAAAAAAAAAAAAAAAAAAAAAAAAAAAAAAAAAAAAAAAAAAAAAAAAAAAAAAAAAAAAAAAAAAAAAAAAAAAAAAAAAAAAAAAAAAAAAAAAAAAAAAAAAAAAAAAAAAAAAAAAAAAAAAAAAAAAAAAAAAAAAAAAAAAAAAAAAAAAAAAAAAAAAAAAAAAAAAAAAAAAAAAAAAAAAAAAAAAAAAAAAAAAAAAAAAAAAAAAAAAAAAAAAAAAAAAAAAAAAAAAAAAAAAAAAAAAAAAAAAAAAAAAAAAAAAAAAAAAAAAAAAAAAAAAAAAAAAAAAAAAAAAAAAAAAAAAAAAAAAAAAAAAAAAAAAAAAAAAAAAAAAAAAAAAAAAAAAAAAAAAAAAAAAAAAAAAAAAAAAAAAAAAAAAAAAAAAAAAAAAAAAAAAAAAAAAAAAAAAAAAAAAAAAAAAAAAAAAAAAAAAAAAAAAAAAAAAAAAAAAAAAAAAAAAAAAAAAAAAAAAAAAAAAAAAAAAAAAAAAAAAAAAAAAAAAAAAAAAAAAAAAAAAAAAAAAAAAAAAAAAAAAAAAAAAAAAAAAAAAAAAAAAAAAAAAAAAAAAAAAAAAAAAAAAAAAAAAAAAAAAAAAAAAAAAAAAAAAAAAAAAAAAAAAAAAAAAAAAAAAAAAAAAAAAAAAAAAAAAAAAAAAAAAAAAAAAAAAAAAAAAAAAAAAAAAAAAAAAAAAAAAAAAAAAAAAAAAAAAAAAAAAAAAAAAAAAAAAAAAAAAAAAAAAAAAAAAAAAAAAAAAAAAAAAAAAAAAAAAAAAAAAAAAAAAAAAAAAAAAAAAAAAAAAAAAAAAAAAAAAAAAAAAAAAAAAAAAAAAAAAAAAAAAAAAAAAAAAAAAAAAAAAAAAAAAAAAAAAAAAAAAAAAAAAAAAAAAAAAAAAAAAAAAAAAAAAAAAAAAAAAAAAAAAAAAAAAAAAAAAAAAAAAAAAAAAAAAAAAAAAAAAAAAAAAAAAAAAAAAAAAAAAAAAAAAAAAAAAAAAAAAAAAAAAAAAAAAAAAAAAAAAAAAAAAAAAAAAAAAAAAAAAAAAAAAAAAAAAAAAAAAAAAAAAAAAAAAAAAAAAAAAAAAAAAAAAAAAAAAAAAAAAAAAAAAAAAAAAAAAAAAAAAAAAAAAAAAAAAAAAAAAAAAAAAAAAAAAAAAAAAAAAAAAAAAAAAAAAAAAAAAAAAAAAAAAAAAAAAAAAAAAAAAAAAAAAAAAAAAAAAAAAAAAAAAAAAAAAAAAAAAAAAAAAAAAAAAAAAAAAAAAAAAAAAAAAAAAAAAAAAAAAAAAAAAAAAAAAAAAAAAAAAAAAAAAAAAAAAAAAAAAAAAAAAAAAAAAAAAAAAAAAAAAAAAAAAAAAAAAAAAAAAAAAAAAAAAAAAAAAAAAAAAAAAAAAAAAAAAAAAAAAAAAAAAAAAAAAAAAAAAAAAAAAAAAAAAAAAAAAAAAAAAAAAAAAAAAAAAAAAAAAAAAAAAAAAAAAAAAAAAAAAAAAAAAAAAAAAAAAAAAAAAAAAAAAAAAAAAAAAAAAAAAAAAAAAAAAAAAAAAAAAAAAAAAAAAAAAAAAAAAAAAAAAAAAAAAAAAAAAAAAAAAAAAAAAAAAAAAAAAAAAAAAAAAAAAAAAAAAAAAAAAAAAAAAAAAAAAAAAAAAAAAAAAAAAAAAAAAAAAAAAAAAAAAAAAAAAAAAAAAAAAAAAAAAAAAAAAAAAAAAAAAAAAAAAAAAAAAAAAAAAAAAAAAAAAAAAAAAAAAAAAAAAAAAAAAAAAAAAAAAAAAAAAAAAAAAAAAAAAAAAAAAAAAAAAAAAAAAAAAAAAAAAAAAAAAAAAAAAAAAAAAAAAAAAAAAAAAAAAAAAAAAAAAAAAAAAAAAAAAAAAAAAAAAAAAAAAAAAAAAAAAAAAAAAAAAAAAAAAAAAAAAAAAAAAAAAAAAAAAAAAAAAAAAAAAAAAAAAAAAAAAAAAAAAAAAAAAAAAAAAAAAAAAAAAAAAAAAAAAAAAAAAAAAAAAAAAAAAAAAAAAAAAAAAAAAAAAAAAAAAAAAAAAAAAAAAAAAAAAAAAAAAAAAAAAAAAAAAAAAAAAAAAAAAAAAAAAAAAAAAAAAAAAAAAAAAAAAAAAAAAAAAAAAAAAAAAAAAAAAAAAAAAAAAAAAAAAAAAAAAAAAAAAAAAAAAAAAAAAAAAAAAAAAAAAAAAAAAAAAAAAAAAAAAAAAAAAAAAAAAAAAAAAAAAAAAAAAAAAAAAAAAAAAAAAAAAAAAAAAAAAAAAAAAAAAAAAAAAAAAAAAAAAAAAAAAAAAAAAAAAAAAAAAAAAAAAAAAAAAAAAAAAAAAAAAAAAAAAAAAAAAAAAAAAAAAAAAAAAAAAAAAAAAAAAAAAAAAAAAAAAAAAAAAAAAAAAAAAAAAAAAAAAAAAAAAAAAAAAAAAAAAAAAAAAAAAAAAAAAAAAAAAAAAAAAAAAAAAAAAAAAAAAAAAAAAAAAAAAAAAAAAAAAAAAAAAAAAAAAAAAAAAAAAAAAAAAAAAAAAAAAAAAAAAAAAAAAAAAAAAAAAAAAAAAAAAAAAAAAAAAAAAAAAAAAAAAAAAAAAAAAAAAAAAAAAAAAAAAAAAAAAAAAAAAAAAAAAAAAAAAAAAAAAAAAAAAAAAAAAAAAAAAAAAAAAAAAAAAAAAAAAAAAAAAAAAAAAAAAAAAAAAAAAAAAAAAAAAAAAAAAAAAAAAAAAAAAAAAAAAAAAAAAAAAAAAAAAAAAAAAAAAAAAAAAAAAAAAAAAAAAAAAAAAAAAAAAAAAAAAAAAAAAAAAAAAAAAAAAAAAAAAAAAAAAAAAAAAAAAAAAAAAAAAAAAAAAAAAAAAAAAAAAAAAAAAAAAAAAAAAAAAAAAAAAAAAAAAAAAAAAAAAAAAAAAAAAAAAAAAAAAAAAAAAAAAAAAAAAAAAAAAAAAAAAAAAAAAAAAAAAAAAAAAAAAAAAAAAAAAAAAAAAAAAAAAAAAAAAAAAAAAAAAAAAAAAAAAAAAAAAAAAAAAAAAAAAAAAAAAAAAAAAAAAAAAAAAAAAAAAAAAAAAAAAAAAAAAAAAAAAAAAAAAAAAPZYQF+R0kThP7ck/hNGXXMnv8pjfMOawXZmelo9KMv4tEyXPAotdgWlJ2MMFuUvrTmwglf7VY2i9WKv5LfeE9r7p8s=</c2pa:manifest></metadata>
<style>
.tw{animation:tw 3s ease-in-out infinite}
@keyframes tw{0%,100%{opacity:.2}50%{opacity:1}}
.glow{animation:glow 5s ease-in-out infinite}
@keyframes glow{0%,100%{opacity:.55}50%{opacity:1}}
.steam{animation:steam 3.6s ease-out infinite;opacity:0}
@keyframes steam{0%{transform:translateY(6px);opacity:0}25%{opacity:.85}100%{transform:translateY(-36px);opacity:0}}
.tail{transform-box:fill-box;transform-origin:100% 100%;animation:tail 3.2s ease-in-out infinite}
@keyframes tail{0%,100%{transform:rotate(-6deg)}50%{transform:rotate(9deg)}}
.ear{transform-box:fill-box;transform-origin:50% 100%;animation:ear 6s infinite}
@keyframes ear{0%,86%,100%{transform:rotate(0)}90%{transform:rotate(-14deg)}94%{transform:rotate(4deg)}}
.blink{transform-box:fill-box;transform-origin:center;animation:blink 5s infinite}
@keyframes blink{0%,92%,100%{transform:scaleY(1)}95%{transform:scaleY(.1)}}
.hand{animation:tap .26s ease-in-out infinite alternate}
@keyframes tap{from{transform:translateY(0)}to{transform:translateY(-4px)}}
.breathe{animation:breathe 4s ease-in-out infinite}
@keyframes breathe{0%,100%{transform:translateY(0)}50%{transform:translateY(-2px)}}
.bob{animation:bob 5s ease-in-out infinite}
@keyframes bob{0%,100%{transform:translateY(0)}50%{transform:translateY(-5px)}}
.line{transform-box:fill-box;transform-origin:0 50%;animation:ln 7s steps(10) infinite backwards}
@keyframes ln{0%{transform:scaleX(0)}18%,100%{transform:scaleX(1)}}
.cur{animation:cur 1s steps(1) infinite}
@keyframes cur{50%{opacity:0}}
.gl{animation:gl 4s ease-out infinite;opacity:0}
@keyframes gl{0%{transform:translate(0,0);opacity:0}15%{opacity:.95}100%{transform:translate(52px,-72px);opacity:0}}
.mote{animation:mote 9s ease-in-out infinite;opacity:0}
@keyframes mote{0%{transform:translate(0,0);opacity:0}30%{opacity:.85}70%{opacity:.6}100%{transform:translate(14px,-46px);opacity:0}}
.spin{animation:spin 120s linear infinite}
@keyframes spin{to{transform:rotate(360deg)}}
.drain{transform-box:fill-box;transform-origin:0 50%;animation:drain 10s ease-in-out infinite}
@keyframes drain{0%{transform:scaleX(1)}60%{transform:scaleX(.35)}68%,100%{transform:scaleX(1)}}
.nxt{animation:nxt 1s ease-in-out infinite}
@keyframes nxt{0%,100%{transform:translateY(0)}50%{transform:translateY(3px)}}
.smooth{shape-rendering:auto}
@media (prefers-reduced-motion:reduce){*{animation:none!important}}
</style>
<defs>
<linearGradient id="wall" x1="0" y1="0" x2="0" y2="1"><stop offset="0" stop-color="#241c42"/><stop offset="1" stop-color="#352a5a"/></linearGradient>
<linearGradient id="sky" x1="0" y1="0" x2="0" y2="1"><stop offset="0" stop-color="#120e36"/><stop offset="1" stop-color="#3d3182"/></linearGradient>
<linearGradient id="cone" x1="0" y1="0" x2="0" y2="1"><stop offset="0" stop-color="#ffd98a" stop-opacity=".38"/><stop offset="1" stop-color="#ffd98a" stop-opacity="0"/></linearGradient>
<radialGradient id="halo"><stop offset="0" stop-color="#ffe3a0" stop-opacity=".75"/><stop offset="1" stop-color="#ffe3a0" stop-opacity="0"/></radialGradient>
<linearGradient id="floorshade" x1="0" y1="0" x2="0" y2="1"><stop offset="0" stop-color="#140f26" stop-opacity=".1"/><stop offset="1" stop-color="#140f26" stop-opacity=".6"/></linearGradient>
<radialGradient id="vig" cx=".5" cy=".5" r=".75"><stop offset=".6" stop-color="#0d0920" stop-opacity="0"/><stop offset="1" stop-color="#0d0920" stop-opacity=".55"/></radialGradient>
<pattern id="floor" width="80" height="80" patternUnits="userSpaceOnUse"><rect width="80" height="80" fill="#2c2349"/><rect width="40" height="40" fill="#4a3f6e"/><rect x="40" y="40" width="40" height="40" fill="#4a3f6e"/></pattern>
<pattern id="scan" width="4" height="4" patternUnits="userSpaceOnUse"><rect width="4" height="1" fill="#000" opacity=".12"/></pattern>
<mask id="moonm"><rect x="130" y="90" width="60" height="60" fill="#fff"/><circle cx="170" cy="112" r="15" fill="#000"/></mask>
<clipPath id="round"><rect width="960" height="540" rx="18"/></clipPath>
<clipPath id="typed"><rect x="62" y="470" width="0" height="26"><animate attributeName="width" calcMode="discrete" dur="12s" repeatCount="indefinite" values="0;11;22;32;43;54;65;76;86;97;108;119;130;140;151;162;173;184;194;205;216;227;238;248;259;270;281;292;302;313;324;335;346;356;367;378;389;400;410;421;432;443;454;464;475;486;497;508;518;529;540;551;562;572;572;572;572;572;572;572;572;572;572;572;572;572;572;572;572;572;572;572;572;572;572;572;0"/></rect></clipPath>
</defs>
<g clip-path="url(#round)">
<rect width="960" height="340" fill="url(#wall)"/>
<rect y="250" width="960" height="90" fill="#6d4a68"/>
<rect x="0" y="250" width="3" height="90" fill="#5a3b57"/>
<rect x="40" y="250" width="3" height="90" fill="#5a3b57"/>
<rect x="80" y="250" width="3" height="90" fill="#5a3b57"/>
<rect x="120" y="250" width="3" height="90" fill="#5a3b57"/>
<rect x="160" y="250" width="3" height="90" fill="#5a3b57"/>
<rect x="200" y="250" width="3" height="90" fill="#5a3b57"/>
<rect x="240" y="250" width="3" height="90" fill="#5a3b57"/>
<rect x="280" y="250" width="3" height="90" fill="#5a3b57"/>
<rect x="320" y="250" width="3" height="90" fill="#5a3b57"/>
<rect x="360" y="250" width="3" height="90" fill="#5a3b57"/>
<rect x="400" y="250" width="3" height="90" fill="#5a3b57"/>
<rect x="440" y="250" width="3" height="90" fill="#5a3b57"/>
<rect x="480" y="250" width="3" height="90" fill="#5a3b57"/>
<rect x="520" y="250" width="3" height="90" fill="#5a3b57"/>
<rect x="560" y="250" width="3" height="90" fill="#5a3b57"/>
<rect x="600" y="250" width="3" height="90" fill="#5a3b57"/>
<rect x="640" y="250" width="3" height="90" fill="#5a3b57"/>
<rect x="680" y="250" width="3" height="90" fill="#5a3b57"/>
<rect x="720" y="250" width="3" height="90" fill="#5a3b57"/>
<rect x="760" y="250" width="3" height="90" fill="#5a3b57"/>
<rect x="800" y="250" width="3" height="90" fill="#5a3b57"/>
<rect x="840" y="250" width="3" height="90" fill="#5a3b57"/>
<rect x="880" y="250" width="3" height="90" fill="#5a3b57"/>
<rect x="920" y="250" width="3" height="90" fill="#5a3b57"/>
<rect y="246" width="960" height="8" fill="#8d6384"/>
<rect x="56" y="64" width="178" height="190" fill="#7a5470"/><rect x="64" y="74" width="162" height="172" fill="url(#sky)"/>
<g class="tw" style="animation-delay:1.7s" fill="#fdf3dc"><rect x="185" y="187" width="2" height="8"/><rect x="182" y="190" width="8" height="2"/></g><g class="tw" style="animation-delay:1.5s" fill="#fdf3dc"><rect x="189" y="134" width="2" height="8"/><rect x="186" y="137" width="8" height="2"/></g><g class="tw" style="animation-delay:0.6s" fill="#fdf3dc"><rect x="220" y="101" width="2" height="8"/><rect x="217" y="104" width="8" height="2"/></g><g class="tw" style="animation-delay:1.9s" fill="#fdf3dc"><rect x="201" y="137" width="2" height="8"/><rect x="198" y="140" width="8" height="2"/></g><g class="tw" style="animation-delay:1.3s" fill="#fdf3dc"><rect x="117" y="89" width="2" height="8"/><rect x="114" y="92" width="8" height="2"/></g><g class="tw" style="animation-delay:1.6s" fill="#fdf3dc"><rect x="106" y="88" width="2" height="8"/><rect x="103" y="91" width="8" height="2"/></g><g class="tw" style="animation-delay:2.9s" fill="#fdf3dc"><rect x="80" y="153" width="2" height="8"/><rect x="77" y="156" width="8" height="2"/></g><g class="tw" style="animation-delay:2.2s" fill="#fdf3dc"><rect x="185" y="160" width="2" height="8"/><rect x="182" y="163" width="8" height="2"/></g><g class="tw" style="animation-delay:0.0s" fill="#fdf3dc"><rect x="110" y="156" width="2" height="8"/><rect x="107" y="159" width="8" height="2"/></g><g class="tw" style="animation-delay:0.2s" fill="#fdf3dc"><rect x="205" y="85" width="2" height="8"/><rect x="202" y="88" width="8" height="2"/></g><g class="tw" style="animation-delay:0.7s" fill="#fdf3dc"><rect x="118" y="189" width="2" height="8"/><rect x="115" y="192" width="8" height="2"/></g><g class="tw" style="animation-delay:1.4s" fill="#fdf3dc"><rect x="77" y="176" width="2" height="8"/><rect x="74" y="179" width="8" height="2"/></g><g class="tw" style="animation-delay:2.5s" fill="#fdf3dc"><rect x="182" y="152" width="2" height="8"/><rect x="179" y="155" width="8" height="2"/></g><g class="tw" style="animation-delay:1.9s" fill="#fdf3dc"><rect x="202" y="106" width="2" height="8"/><rect x="199" y="109" width="8" height="2"/></g>
<circle cx="160" cy="120" r="22" fill="#fdf3dc" mask="url(#moonm)" transform="translate(0,0)"/>
<rect x="64" y="206" width="22" height="40" fill="#241b57"/>
<rect x="68" y="212" width="4" height="4" fill="#ffd98a" opacity=".8"/>
<rect x="76" y="224" width="4" height="4" fill="#ffd98a" opacity=".8"/>
<rect x="68" y="236" width="4" height="4" fill="#ffd98a" opacity=".8"/>
<rect x="88" y="196" width="18" height="50" fill="#241b57"/>
<rect x="100" y="202" width="4" height="4" fill="#ffd98a" opacity=".8"/>
<rect x="100" y="214" width="4" height="4" fill="#ffd98a" opacity=".8"/>
<rect x="92" y="238" width="4" height="4" fill="#ffd98a" opacity=".8"/>
<rect x="108" y="212" width="26" height="34" fill="#241b57"/>
<rect x="120" y="218" width="4" height="4" fill="#ffd98a" opacity=".8"/>
<rect x="112" y="230" width="4" height="4" fill="#ffd98a" opacity=".8"/>
<rect x="136" y="190" width="20" height="56" fill="#241b57"/>
<rect x="140" y="196" width="4" height="4" fill="#ffd98a" opacity=".8"/>
<rect x="140" y="220" width="4" height="4" fill="#ffd98a" opacity=".8"/>
<rect x="148" y="232" width="4" height="4" fill="#ffd98a" opacity=".8"/>
<rect x="158" y="204" width="24" height="42" fill="#241b57"/>
<rect x="162" y="210" width="4" height="4" fill="#ffd98a" opacity=".8"/>
<rect x="170" y="222" width="4" height="4" fill="#ffd98a" opacity=".8"/>
<rect x="184" y="198" width="18" height="48" fill="#241b57"/>
<rect x="188" y="228" width="4" height="4" fill="#ffd98a" opacity=".8"/>
<rect x="204" y="210" width="22" height="36" fill="#241b57"/>
<rect x="208" y="216" width="4" height="4" fill="#ffd98a" opacity=".8"/>
<rect x="208" y="240" width="4" height="4" fill="#ffd98a" opacity=".8"/>
<rect x="142" y="74" width="6" height="172" fill="#7a5470"/><rect x="64" y="156" width="162" height="6" fill="#7a5470"/>
<rect x="50" y="248" width="190" height="10" fill="#8d6384"/>
<rect x="52" y="58" width="22" height="196" fill="#e58aa8"/>
<rect x="56" y="58" width="2" height="196" fill="#c46d8c"/>
<rect x="63" y="58" width="2" height="196" fill="#c46d8c"/>
<rect x="70" y="58" width="2" height="196" fill="#c46d8c"/>
<rect x="220" y="58" width="22" height="196" fill="#e58aa8"/>
<rect x="224" y="58" width="2" height="196" fill="#c46d8c"/>
<rect x="231" y="58" width="2" height="196" fill="#c46d8c"/>
<rect x="238" y="58" width="2" height="196" fill="#c46d8c"/>
<rect x="40" y="52" width="210" height="8" fill="#8d6384"/>
<polygon class="glow" points="290,98 310,98 450,340 150,340" fill="url(#cone)"/>
<line x1="300" y1="0" x2="300" y2="64" stroke="#4b3f72" stroke-width="3"/>
<polygon points="272,94 290,64 310,64 328,94" fill="#3a2f66"/><rect x="272" y="92" width="56" height="4" fill="#5a4a92"/>
<circle class="glow smooth" cx="300" cy="100" r="46" fill="url(#halo)"/>
<rect x="294" y="96" width="12" height="9" fill="#fff0c4"/>
<polygon class="glow" points="650,98 670,98 810,340 510,340" fill="url(#cone)"/>
<line x1="660" y1="0" x2="660" y2="64" stroke="#4b3f72" stroke-width="3"/>
<polygon points="632,94 650,64 670,64 688,94" fill="#3a2f66"/><rect x="632" y="92" width="56" height="4" fill="#5a4a92"/>
<circle class="glow smooth" cx="660" cy="100" r="46" fill="url(#halo)"/>
<rect x="654" y="96" width="12" height="9" fill="#fff0c4"/>
<rect x="388" y="50" width="184" height="108" fill="#7a5470"/><rect x="396" y="58" width="168" height="92" fill="#221c3e"/>
<text x="480" y="86" text-anchor="middle" font-size="16" fill="#f4a6c0" font-family="'Courier New',ui-monospace,Menlo,monospace" font-weight="700">hi, i&apos;m</text>
<text x="480" y="118" text-anchor="middle" font-size="26" fill="#fdf3dc" font-family="'Courier New',ui-monospace,Menlo,monospace" font-weight="700">swagatika</text>
<rect x="424" y="124" width="112" height="3" fill="#b9a4f0"/>
<text x="480" y="143" text-anchor="middle" font-size="13" fill="#b9a4f0" font-family="'Courier New',ui-monospace,Menlo,monospace" font-weight="700">code + coffee</text>
<circle cx="745" cy="86" r="24" fill="#7a5470"/><circle cx="745" cy="86" r="19" fill="#fdf3dc"/>
<rect x="744" y="70" width="2" height="4" fill="#7a5470"/><rect x="744" y="98" width="2" height="4" fill="#7a5470"/><rect x="729" y="85" width="4" height="2" fill="#7a5470"/><rect x="757" y="85" width="4" height="2" fill="#7a5470"/>
<line class="smooth" x1="745" y1="86" x2="752" y2="80" stroke="#4b3f72" stroke-width="3"/>
<line class="smooth spin" x1="745" y1="86" x2="745" y2="72" stroke="#e58aa8" stroke-width="2" style="transform-origin:745px 86px"/>
<rect x="800" y="132" width="150" height="8" fill="#8d6384"/><rect x="800" y="200" width="150" height="8" fill="#8d6384"/>
<rect x="815" y="112" width="26" height="20" fill="#c9774f"/><rect x="822" y="94" width="4" height="18" fill="#6fcf97"/><rect x="814" y="98" width="20" height="4" fill="#6fcf97"/><rect x="830" y="90" width="4" height="22" fill="#4fbf87"/>
<rect x="858" y="100" width="22" height="32" fill="#b9a4f0" opacity=".6"/><rect x="858" y="96" width="22" height="5" fill="#8d6384"/><rect x="888" y="108" width="20" height="24" fill="#f4a6c0" opacity=".6"/><rect x="888" y="104" width="20" height="5" fill="#8d6384"/>
<rect x="920" y="110" width="22" height="22" fill="#f3cf7a"/><rect x="942" y="116" width="6" height="10" fill="none" stroke="#f3cf7a" stroke-width="3"/>
<rect x="816" y="156" width="12" height="44" fill="#9b7be0"/>
<rect x="830" y="148" width="12" height="52" fill="#f4a6c0"/>
<rect x="844" y="160" width="12" height="40" fill="#f3cf7a"/>
<rect x="858" y="152" width="12" height="48" fill="#8fe0c8"/>
<rect x="880" y="168" width="28" height="32" fill="#c9774f"/><rect x="884" y="146" width="20" height="22" fill="#4fbf87"/><rect x="890" y="138" width="8" height="10" fill="#6fcf97"/>
<rect x="780" y="276" width="180" height="70" fill="#7a5470"/><rect x="780" y="268" width="180" height="12" fill="#a97c9c"/>
<rect x="802" y="228" width="62" height="40" fill="#d9d3ef"/><rect x="802" y="228" width="62" height="8" fill="#b4abd8"/><rect x="812" y="244" width="8" height="8" fill="#f4a6c0"/><rect x="826" y="244" width="8" height="8" fill="#8fe0c8"/><rect x="826" y="256" width="14" height="12" fill="#3a2f66"/>
<rect x="884" y="246" width="56" height="22" fill="#fdf3dc" opacity=".25"/><rect x="890" y="256" width="14" height="12" fill="#e0a76a"/><rect x="910" y="258" width="14" height="10" fill="#f4a6c0"/>
<rect y="340" width="960" height="200" fill="url(#floor)"/><rect y="340" width="960" height="200" fill="url(#floorshade)"/><rect y="336" width="960" height="6" fill="#241c42"/>
<ellipse class="smooth" cx="485" cy="505" rx="250" ry="14" fill="#0d0920" opacity=".45"/>
<rect x="290" y="436" width="14" height="90" fill="#9a5f3a"/><rect x="666" y="436" width="14" height="90" fill="#9a5f3a"/>
<g class="breathe">
<rect x="440" y="190" width="80" height="16" fill="#15121f"/><rect x="424" y="206" width="112" height="16" fill="#15121f"/><rect x="408" y="222" width="144" height="160" fill="#15121f"/>
<rect x="448" y="198" width="18" height="4" fill="#3a3558"/><rect x="432" y="214" width="10" height="4" fill="#3a3558"/><rect x="500" y="210" width="12" height="4" fill="#3a3558"/>
<rect x="416" y="334" width="16" height="92" fill="#f3cf7a"/><rect x="528" y="334" width="16" height="92" fill="#f3cf7a"/><rect x="432" y="334" width="96" height="100" fill="#f3cf7a"/><rect x="432" y="400" width="96" height="34" fill="#e3b95e"/>
<rect x="468" y="322" width="24" height="16" fill="#f1c7ae"/><rect x="456" y="334" width="48" height="8" fill="#fff9ec"/>
<rect x="432" y="246" width="96" height="80" fill="#fde0cf"/><rect x="440" y="326" width="80" height="0" fill="#fde0cf"/>
<rect x="432" y="246" width="96" height="12" fill="#15121f"/><rect x="432" y="258" width="22" height="18" fill="#15121f"/><rect x="506" y="258" width="22" height="18" fill="#15121f"/><rect x="476" y="246" width="8" height="8" fill="#fde0cf"/>
<rect x="428" y="226" width="12" height="6" fill="#e8e4ff"/><rect x="520" y="226" width="12" height="6" fill="#e8e4ff"/>
<g class="blink"><rect x="452" y="284" width="12" height="16" fill="#15121f"/><rect x="496" y="284" width="12" height="16" fill="#15121f"/><rect x="454" y="286" width="4" height="4" fill="#fff"/><rect x="498" y="286" width="4" height="4" fill="#fff"/></g>
<rect x="438" y="306" width="10" height="6" fill="#f4a6c0" opacity=".8"/><rect x="512" y="306" width="10" height="6" fill="#f4a6c0" opacity=".8"/>
<rect x="468" y="310" width="4" height="4" fill="#8a4b5a"/><rect x="472" y="314" width="16" height="4" fill="#8a4b5a"/><rect x="488" y="310" width="4" height="4" fill="#8a4b5a"/>
<rect class="glow" x="432" y="292" width="96" height="34" fill="#8fd3ff" opacity=".08"/>
<rect x="408" y="334" width="26" height="62" fill="#15121f"/><rect x="526" y="334" width="26" height="62" fill="#15121f"/>
</g>
<rect x="250" y="412" width="470" height="20" fill="#d79a62"/><rect x="250" y="432" width="470" height="10" fill="#b9784a"/><rect x="250" y="412" width="470" height="3" fill="#e8b27a"/>
<rect x="400" y="344" width="160" height="60" fill="#d9d3ef" stroke="#b4abd8" stroke-width="4"/><rect x="408" y="352" width="144" height="4" fill="#f1eeff"/>
<circle cx="480" cy="376" r="13" fill="#fdf3dc" mask="url(#moonm2)"/>
<mask id="moonm2"><rect x="460" y="356" width="40" height="40" fill="#fff"/><circle cx="487" cy="372" r="11" fill="#000"/></mask>
<rect x="388" y="404" width="184" height="8" fill="#b4abd8"/><rect x="462" y="404" width="36" height="3" fill="#9a91c4"/>
<g class="hand" style="animation-delay:0s"><rect x="378" y="396" width="22" height="16" fill="#fde0cf"/><rect x="368" y="398" width="12" height="14" fill="#f3cf7a"/></g>
<g class="hand" style="animation-delay:.13s"><rect x="560" y="396" width="22" height="16" fill="#fde0cf"/><rect x="580" y="398" width="12" height="14" fill="#f3cf7a"/></g>
<g transform="translate(330,412)"><g class="smooth"><path class="tail" d="M-30,-8 C-62,-8 -74,-30 -58,-48" fill="none" stroke="#f6f1ff" stroke-width="9" stroke-linecap="round"/></g><rect x="-34" y="-40" width="68" height="40" fill="#f6f1ff"/><rect x="-26" y="-48" width="52" height="8" fill="#f6f1ff"/><rect x="-34" y="-10" width="68" height="10" fill="#e4dcf8"/><polygon points="-28,-80 -24,-106 -4,-86" fill="#f6f1ff"/><polygon points="-24,-84 -22,-98 -10,-86" fill="#f4a6c0"/><g class="ear"><polygon points="28,-80 24,-106 4,-86" fill="#f6f1ff"/><polygon points="24,-84 22,-98 10,-86" fill="#f4a6c0"/></g><rect x="-28" y="-82" width="56" height="42" fill="#f6f1ff"/><rect x="-20" y="-90" width="40" height="8" fill="#f6f1ff"/><rect x="-8" y="-88" width="3" height="7" fill="#cdbff0"/><rect x="-1" y="-90" width="3" height="9" fill="#cdbff0"/><rect x="6" y="-88" width="3" height="7" fill="#cdbff0"/><rect x="-26" y="-54" width="9" height="5" fill="#f4a6c0" opacity=".75"/><rect x="17" y="-54" width="9" height="5" fill="#f4a6c0" opacity=".75"/><g class="smooth blink"><path d="M-19,-64 q6,7 12,0" fill="none" stroke="#4b3f72" stroke-width="3" stroke-linecap="round"/><path d="M7,-64 q6,7 12,0" fill="none" stroke="#4b3f72" stroke-width="3" stroke-linecap="round"/></g><rect x="-3" y="-56" width="6" height="4" fill="#e58aa0"/><path class="smooth" d="M-7,-50 q3.5,4 7,0 q3.5,4 7,0" fill="none" stroke="#4b3f72" stroke-width="2" stroke-linecap="round"/><g class="smooth" stroke="#b9a4f0" stroke-width="1.5"><line x1="-30" y1="-56" x2="-42" y2="-58"/><line x1="-30" y1="-52" x2="-42" y2="-50"/><line x1="30" y1="-56" x2="42" y2="-58"/><line x1="30" y1="-52" x2="42" y2="-50"/></g><rect x="-14" y="-34" width="28" height="28" fill="#9b7be0"/><rect x="-14" y="-34" width="28" height="5" fill="#3b2418"/><rect x="-10" y="-25" width="4" height="15" fill="#b9a4f0"/><rect x="14" y="-27" width="9" height="14" fill="none" stroke="#9b7be0" stroke-width="4"/><rect x="-21" y="-31" width="9" height="11" fill="#fffaf0"/><rect x="12" y="-31" width="9" height="11" fill="#fffaf0"/><g class="smooth" fill="none" stroke="#fdf3dc" stroke-width="4" stroke-linecap="round"><path class="steam" style="animation-delay:0s" d="M-7,-38 q-6,-8 0,-16 t0,-16"/><path class="steam" style="animation-delay:1.2s" d="M0,-38 q6,-8 0,-16 t0,-16"/><path class="steam" style="animation-delay:2.4s" d="M7,-38 q-6,-8 0,-16 t0,-16"/></g></g>
<rect x="606" y="388" width="26" height="24" fill="#f4a6c0"/><rect x="606" y="388" width="26" height="5" fill="#3b2418"/><rect x="632" y="394" width="8" height="12" fill="none" stroke="#f4a6c0" stroke-width="3"/><rect x="610" y="396" width="3" height="12" fill="#ffd0e0"/>
<g class="smooth" fill="none" stroke="#fdf3dc" stroke-width="3.5" stroke-linecap="round"><path class="steam" style="animation-delay:.4s" d="M614,384 q-5,-7 0,-14 t0,-14"/><path class="steam" style="animation-delay:1.8s" d="M624,384 q5,-7 0,-14 t0,-14"/></g>
<rect x="668" y="392" width="28" height="20" fill="#c9774f"/><rect x="672" y="376" width="6" height="16" fill="#6fcf97"/><rect x="682" y="370" width="6" height="22" fill="#4fbf87"/><rect x="664" y="382" width="8" height="10" fill="#4fbf87"/><rect x="690" y="380" width="8" height="12" fill="#6fcf97"/>
<rect x="268" y="404" width="26" height="8" fill="#fdf3dc"/><rect x="274" y="398" width="14" height="6" fill="#e0a76a"/>
<g class="bob"><g transform="translate(590,168)">
<rect width="164" height="132" fill="#1b1538" opacity=".88"/><rect width="164" height="132" fill="none" stroke="#b9a4f0" stroke-width="3"/><rect width="164" height="18" fill="#b9a4f0"/>
<text x="8" y="13" font-size="11" fill="#1d1636" font-family="'Courier New',ui-monospace,Menlo,monospace" font-weight="700">spell.py</text>
<rect x="130" y="6" width="6" height="6" fill="#e58aa8"/><rect x="141" y="6" width="6" height="6" fill="#f3cf7a"/><rect x="152" y="6" width="6" height="6" fill="#8fe0c8"/>
<rect class="line" style="animation-delay:0.0s" x="10" y="30" width="70" height="8" fill="#f4a6c0"/>
<rect class="line" style="animation-delay:0.9s" x="22" y="45" width="96" height="8" fill="#b9a4f0"/>
<rect class="line" style="animation-delay:1.8s" x="22" y="60" width="60" height="8" fill="#8fe0c8"/>
<rect class="line" style="animation-delay:2.7s" x="34" y="75" width="84" height="8" fill="#f3cf7a"/>
<rect class="line" style="animation-delay:3.6s" x="22" y="90" width="104" height="8" fill="#fdf3dc"/>
<rect class="line" style="animation-delay:4.5s" x="10" y="105" width="48" height="8" fill="#f4a6c0"/>
<rect class="cur" x="10" y="120" width="8" height="8" fill="#fdf3dc"/>
</g></g>
<text class="gl smooth" style="animation-delay:0.0s" x="566" y="352" font-size="13" fill="#8fe0c8" font-family="'Courier New',ui-monospace,Menlo,monospace" font-weight="700">&lt;/&gt;</text>
<text class="gl smooth" style="animation-delay:0.8s" x="572" y="352" font-size="13" fill="#8fe0c8" font-family="'Courier New',ui-monospace,Menlo,monospace" font-weight="700">{ }</text>
<text class="gl smooth" style="animation-delay:1.6s" x="578" y="352" font-size="13" fill="#8fe0c8" font-family="'Courier New',ui-monospace,Menlo,monospace" font-weight="700">0 1</text>
<text class="gl smooth" style="animation-delay:2.4s" x="566" y="352" font-size="13" fill="#8fe0c8" font-family="'Courier New',ui-monospace,Menlo,monospace" font-weight="700">++</text>
<text class="gl smooth" style="animation-delay:3.2s" x="572" y="352" font-size="13" fill="#8fe0c8" font-family="'Courier New',ui-monospace,Menlo,monospace" font-weight="700">def</text>
<path class="smooth" d="M0,14 Q60,46 120,14 Q180,46 240,14 Q300,46 360,14 Q420,46 480,14 Q540,46 600,14 Q660,46 720,14 Q780,46 840,14 Q900,46 960,14" fill="none" stroke="#4b3f72" stroke-width="2"/>
<g class="tw" style="animation-delay:0.0s"><rect x="27" y="25" width="6" height="8" fill="#ffd98a"/></g>
<g class="tw" style="animation-delay:0.6s"><rect x="57" y="29" width="6" height="8" fill="#f4a6c0"/></g>
<g class="tw" style="animation-delay:1.2s"><rect x="87" y="25" width="6" height="8" fill="#b9a4f0"/></g>
<g class="tw" style="animation-delay:1.8s"><rect x="147" y="25" width="6" height="8" fill="#8fe0c8"/></g>
<g class="tw" style="animation-delay:2.4s"><rect x="177" y="29" width="6" height="8" fill="#ffd98a"/></g>
<g class="tw" style="animation-delay:0.0s"><rect x="207" y="25" width="6" height="8" fill="#f4a6c0"/></g>
<g class="tw" style="animation-delay:0.6s"><rect x="267" y="25" width="6" height="8" fill="#b9a4f0"/></g>
<g class="tw" style="animation-delay:1.2s"><rect x="297" y="29" width="6" height="8" fill="#8fe0c8"/></g>
<g class="tw" style="animation-delay:1.8s"><rect x="327" y="25" width="6" height="8" fill="#ffd98a"/></g>
<g class="tw" style="animation-delay:2.4s"><rect x="387" y="25" width="6" height="8" fill="#f4a6c0"/></g>
<g class="tw" style="animation-delay:0.0s"><rect x="417" y="29" width="6" height="8" fill="#b9a4f0"/></g>
<g class="tw" style="animation-delay:0.6s"><rect x="447" y="25" width="6" height="8" fill="#8fe0c8"/></g>
<g class="tw" style="animation-delay:1.2s"><rect x="507" y="25" width="6" height="8" fill="#ffd98a"/></g>
<g class="tw" style="animation-delay:1.8s"><rect x="537" y="29" width="6" height="8" fill="#f4a6c0"/></g>
<g class="tw" style="animation-delay:2.4s"><rect x="567" y="25" width="6" height="8" fill="#b9a4f0"/></g>
<g class="tw" style="animation-delay:0.0s"><rect x="627" y="25" width="6" height="8" fill="#8fe0c8"/></g>
<g class="tw" style="animation-delay:0.6s"><rect x="657" y="29" width="6" height="8" fill="#ffd98a"/></g>
<g class="tw" style="animation-delay:1.2s"><rect x="687" y="25" width="6" height="8" fill="#f4a6c0"/></g>
<g class="tw" style="animation-delay:1.8s"><rect x="747" y="25" width="6" height="8" fill="#b9a4f0"/></g>
<g class="tw" style="animation-delay:2.4s"><rect x="777" y="29" width="6" height="8" fill="#8fe0c8"/></g>
<g class="tw" style="animation-delay:0.0s"><rect x="807" y="25" width="6" height="8" fill="#ffd98a"/></g>
<g class="tw" style="animation-delay:0.6s"><rect x="867" y="25" width="6" height="8" fill="#f4a6c0"/></g>
<g class="tw" style="animation-delay:1.2s"><rect x="897" y="29" width="6" height="8" fill="#b9a4f0"/></g>
<g class="tw" style="animation-delay:1.8s"><rect x="927" y="25" width="6" height="8" fill="#8fe0c8"/></g>
<rect class="mote" style="animation-delay:4.0s;animation-duration:8.0s" x="738" y="246" width="3" height="3" fill="#ffe3a0"/>
<rect class="mote" style="animation-delay:3.8s;animation-duration:8.9s" x="789" y="217" width="3" height="3" fill="#ffe3a0"/>
<rect class="mote" style="animation-delay:8.9s;animation-duration:7.0s" x="444" y="365" width="3" height="3" fill="#ffe3a0"/>
<rect class="mote" style="animation-delay:9.0s;animation-duration:7.1s" x="862" y="305" width="3" height="3" fill="#ffe3a0"/>
<rect class="mote" style="animation-delay:9.0s;animation-duration:10.0s" x="231" y="351" width="3" height="3" fill="#ffe3a0"/>
<rect class="mote" style="animation-delay:0.4s;animation-duration:7.7s" x="630" y="201" width="3" height="3" fill="#ffe3a0"/>
<rect class="mote" style="animation-delay:0.1s;animation-duration:10.1s" x="492" y="282" width="3" height="3" fill="#ffe3a0"/>
<rect class="mote" style="animation-delay:3.5s;animation-duration:7.4s" x="890" y="301" width="3" height="3" fill="#ffe3a0"/>
<rect class="mote" style="animation-delay:0.1s;animation-duration:8.8s" x="253" y="274" width="3" height="3" fill="#ffe3a0"/>
<rect class="mote" style="animation-delay:1.1s;animation-duration:9.9s" x="677" y="382" width="3" height="3" fill="#ffe3a0"/>
<rect class="mote" style="animation-delay:7.8s;animation-duration:7.9s" x="892" y="219" width="3" height="3" fill="#ffe3a0"/>
<rect class="mote" style="animation-delay:8.2s;animation-duration:11.1s" x="197" y="309" width="3" height="3" fill="#ffe3a0"/>
<rect class="mote" style="animation-delay:1.4s;animation-duration:10.1s" x="295" y="247" width="3" height="3" fill="#ffe3a0"/>
<rect class="mote" style="animation-delay:6.2s;animation-duration:8.9s" x="607" y="250" width="3" height="3" fill="#ffe3a0"/>
<rect class="mote" style="animation-delay:3.8s;animation-duration:7.5s" x="534" y="190" width="3" height="3" fill="#ffe3a0"/>
<rect class="mote" style="animation-delay:8.7s;animation-duration:8.2s" x="79" y="412" width="3" height="3" fill="#ffe3a0"/>
<rect x="30" y="452" width="900" height="76" fill="#1d1636" opacity=".95"/><rect x="30" y="452" width="900" height="76" fill="none" stroke="#b9a4f0" stroke-width="4"/><rect x="38" y="460" width="884" height="60" fill="none" stroke="#f4a6c0" stroke-width="2"/>
<rect x="50" y="436" width="140" height="26" fill="#b9a4f0"/>
<text x="120" y="454" text-anchor="middle" font-size="16" fill="#1d1636" font-family="'Courier New',ui-monospace,Menlo,monospace" font-weight="700">swagatika</text>
<text x="62" y="490" font-size="18" fill="#fdf3dc" textLength="572.4" lengthAdjust="spacing" clip-path="url(#typed)" font-family="'Courier New',ui-monospace,Menlo,monospace" font-weight="700">night falls. coffee is warm. the code is compiling...</text>
<text x="62" y="513" font-size="13" fill="#f4a6c0" font-family="'Courier New',ui-monospace,Menlo,monospace" font-weight="700">&gt; say hi    &gt; look around    &gt; stay a while</text>
<polygon class="nxt" points="712,482 722,482 717,490" fill="#f4a6c0"/>
<text x="750" y="486" font-size="12" fill="#fdf3dc" font-family="'Courier New',ui-monospace,Menlo,monospace" font-weight="700">coffee</text><rect x="806" y="477" width="104" height="10" fill="#3a2f5e"/><rect class="drain" x="806" y="477" width="104" height="10" fill="#f0b46c"/>
<text x="750" y="508" font-size="12" fill="#fdf3dc" font-family="'Courier New',ui-monospace,Menlo,monospace" font-weight="700">focus</text><rect x="806" y="499" width="104" height="10" fill="#3a2f5e"/><rect x="806" y="499" width="104" height="10" fill="#8fe0c8"/>
<rect width="960" height="540" fill="url(#scan)"/><rect width="960" height="540" fill="url(#vig)"/>
</g></svg>
